<svg xmlns="http://www.w3.org/2000/svg" viewBox="0 0 64 64" role="img" aria-label="Dinero">
  <defs>
    <linearGradient id="g" x1="0" y1="0" x2="1" y2="1">
      <stop offset="0%" stop-color="#22c55e"/>
      <stop offset="100%" stop-color="#16a34a"/>
    </linearGradient>
  </defs>
  <rect x="4" y="12" width="56" height="40" rx="8" fill="url(#g)"/>
  <rect x="10" y="18" width="44" height="28" rx="6" fill="#14532d" opacity="0.25"/>
  <circle cx="32" cy="32" r="10" fill="#dcfce7"/>
  <path d="M32 25c-3 0-5 1.7-5 4 0 2.2 1.7 3.2 4.7 3.9 2.3.5 3.3 1 3.3 2.1 0 1.2-1.1 2-2.8 2-1.8 0-3.3-.8-4.5-2.1l-2 2.2c1.3 1.5 3.2 2.5 5.4 2.8V42h2.4v-2.2c3.1-.4 5.1-2.3 5.1-4.9 0-2.9-2-4-5.2-4.7-2.2-.5-3-.9-3-2 0-1 .9-1.7 2.5-1.7 1.5 0 2.7.6 3.8 1.6l1.9-2.2c-1.2-1.2-2.7-2-4.6-2.3V22h-2.4v1.9z" fill="#166534"/>
  <circle cx="15" cy="32" r="3" fill="#bbf7d0"/>
  <circle cx="49" cy="32" r="3" fill="#bbf7d0"/>
</svg>
